<?xml version="1.0" encoding="UTF-8" standalone="no"?>
<!-- Creator: CorelDRAW X8 -->

<svg
   xmlns:dc="http://purl.org/dc/elements/1.1/"
   xmlns:cc="http://creativecommons.org/ns#"
   xmlns:rdf="http://www.w3.org/1999/02/22-rdf-syntax-ns#"
   xmlns:svg="http://www.w3.org/2000/svg"
   xmlns="http://www.w3.org/2000/svg"
   xmlns:sodipodi="http://sodipodi.sourceforge.net/DTD/sodipodi-0.dtd"
   xmlns:inkscape="http://www.inkscape.org/namespaces/inkscape"
   xml:space="preserve"
   width="2.72"
   height="2.72"
   version="1.1"
   style="clip-rule:evenodd;fill-rule:evenodd;image-rendering:optimizeQuality;shape-rendering:geometricPrecision;text-rendering:geometricPrecision"
   viewBox="0 0 71.966665 71.966665"
   id="svg33"
   sodipodi:docname="Mynex.Cat.svg"
   inkscape:version="0.92.4 (5da689c313, 2019-01-14)"
   inkscape:export-filename="/home/valex/Рабочий стол/mynex-tag/android/app/src/main/res/mipmap-mdpi/ic_stop_foreground.png"
   inkscape:export-xdpi="12.191999"
   inkscape:export-ydpi="12.191999"><defs
   id="defs7" /><metadata
   id="metadata37"><rdf:RDF><cc:Work
       rdf:about=""><dc:format>image/svg+xml</dc:format><dc:type
         rdf:resource="http://purl.org/dc/dcmitype/StillImage" /><dc:title></dc:title></cc:Work></rdf:RDF></metadata><sodipodi:namedview
   pagecolor="#ffffff"
   bordercolor="#666666"
   borderopacity="1"
   objecttolerance="10"
   gridtolerance="10"
   guidetolerance="10"
   inkscape:pageopacity="0"
   inkscape:pageshadow="2"
   inkscape:window-width="1366"
   inkscape:window-height="716"
   id="namedview35"
   showgrid="false"
   inkscape:zoom="81.919996"
   inkscape:cx="0.33457727"
   inkscape:cy="0.81324532"
   inkscape:window-x="0"
   inkscape:window-y="536"
   inkscape:window-maximized="1"
   inkscape:current-layer="svg33"
   showguides="true"
   inkscape:guide-bbox="true"
   inkscape:pagecheckerboard="true"
   inkscape:showpageshadow="false"
   units="px" />
 
 
   
   
   
   <path
   style="clip-rule:evenodd;fill:#000000;fill-opacity:1;fill-rule:evenodd;stroke-width:0.00744844;image-rendering:optimizeQuality;shape-rendering:geometricPrecision;text-rendering:geometricPrecision"
   d="M 35.983733,-2.1240075e-5 A 35.983407,35.983415 0 0 0 -1.9476413e-7,35.982961 35.983407,35.983415 0 0 0 35.983733,71.966643 35.983407,35.983415 0 0 0 71.966664,35.982961 35.983407,35.983415 0 0 0 35.983733,-2.1240075e-5 Z M 38.098093,12.304716 c 0.31804,4.712338 0.472431,8.778724 0.472431,8.778724 0,0 8.268585,-9.771075 21.759799,-7.99793 -0.231301,9.029424 0.134823,23.561181 0.0091,30.480262 -3.237886,0.231331 -6.215984,-0.770906 -8.191524,-2.717551 l 0.125115,-18.059168 c 0,0 -9.472573,-0.260299 -12.488796,11.881728 -2.611523,-0.74194 -5.251462,-0.770706 -8.701332,0.279676 -0.318042,-4.307607 -0.799883,-12.276869 -0.799883,-12.276869 0,0 -15.30325,8.133172 -16.739055,33.169053 -4.8279726,-0.876983 -7.6609384,-4.625538 -7.6609384,-4.625538 0,0 1.599306,-33.805008 32.2146234,-38.912387 z M 25.783,41.320674 A 4.0088109,4.0088118 0 0 1 29.791921,45.329628 4.0088109,4.0088118 0 0 1 25.783,49.337683 4.0088109,4.0088118 0 0 1 21.774117,45.329628 4.0088109,4.0088118 0 0 1 25.783,41.320674 Z m 15.669134,0 a 4.0088109,4.0088118 0 0 1 4.008923,4.008954 4.0088109,4.0088118 0 0 1 -4.008923,4.008055 4.0088109,4.0088118 0 0 1 -4.008881,-4.008055 4.0088109,4.0088118 0 0 1 4.008881,-4.008954 z"
   id="circle7-7-6-8-5-1"
   inkscape:connector-curvature="0" /></svg>